<?xml version="1.0" encoding="UTF-8"?>
<svg xmlns="http://www.w3.org/2000/svg" viewBox="0 0 256 256" version="1.1">
<!-- Based on: https://openclipart.org/detail/185284/chemistry-ideogram-by-libberry-185284, CC0 license -->
<defs>
	<filter id="bloom">
		<feGaussianBlur in="SourceGraphic" stdDeviation="3" />
		<feComponentTransfer><feFuncA type="linear" slope="0.8"/></feComponentTransfer>
		<feMerge><feMergeNode/><feMergeNode in="SourceGraphic"/></feMerge>
	</filter>
</defs>
<g filter="url(#bloom)">
	<path style="fill:#000000;" d="m 143.5,255.5 c -3.0,-0.4 -7.2,-1.9 -10.0,-3.5 -1.1,-0.7 -3.5,-2.6 -5.2,-4.3 -5.0,-5.0 -7.5,-11.0 -7.5,-18.2 -0.0,-3.9 0.6,-7.3 2.2,-10.7 0.5,-1.1 20.3,-35.6 43.9,-76.6 33.0,-57.2 43.2,-74.6 44.0,-75.0 0.7,-0.3 1.3,-0.4 1.9,-0.1 2.1,0.8 41.1,23.5 41.9,24.4 0.5,0.6 0.8,1.3 0.7,1.9 -0.1,0.9 -83.8,146.3 -86.8,151.0 -0.7,1.1 -2.5,3.1 -4.0,4.5 -5.5,5.1 -13.7,7.7 -21.2,6.6 z m 9.0,-6.3 c 4.7,-1.4 8.5,-4.1 11.2,-8.1 1.6,-2.5 84.6,-146.0 84.7,-146.7 0.0,-0.1 -7.8,-4.9 -17.5,-10.4 -14.4,-8.3 -17.6,-10.0 -18.0,-9.6 -0.2,0.2 -5.3,9.0 -11.4,19.4 -6.0,10.4 -24.7,42.9 -41.7,72.2 -16.9,29.3 -31.1,54.0 -31.5,55.0 -1.8,4.1 -2.3,9.3 -1.2,13.6 1.7,6.8 7.6,12.7 14.4,14.5 2.8,0.7 8.5,0.7 11.1,-0.0 z M 1.3,220.5 C 0.6,219.9 0.2,219.2 0.2,218.5 0.3,217.5 8.2,201.8 62.9,95.6 L 71.3,79.2 V 54.8 30.4 l -4.1,-0.0 c -2.6,-0.0 -4.3,-0.1 -4.7,-0.4 -1.4,-1.0 -1.5,-1.8 -1.5,-14.9 0,-12.3 0.0,-12.8 0.7,-13.6 0.4,-0.4 1.1,-0.9 1.6,-1.0 0.4,-0.1 20.2,-0.1 43.9,-0.1 l 43.0,0.1 0.7,0.9 c 0.6,0.8 0.7,1.6 0.7,13.9 -0.0,9.6 -0.1,13.2 -0.4,13.7 -0.9,1.1 -2.1,1.5 -5.8,1.5 h -3.6 V 55.2 79.9 l 10.0,19.4 c 5.5,10.6 11.1,21.5 12.4,24.1 1.3,2.6 2.4,4.9 2.4,5.1 -0.0,0.2 -0.7,1.6 -1.6,3.1 l -1.6,2.7 -13.8,-26.9 -13.8,-26.9 V 55.6 30.4 H 106.4 77.1 v 25.1 25.1 L 54.2,125.3 c -43.4,84.4 -46.1,89.7 -46.0,89.8 0.0,0.0 24.5,0.1 54.4,0.2 29.8,0.0 54.3,0.1 54.3,0.3 2.8e-4,0.1 -0.3,1.1 -0.7,2.3 -0.4,1.2 -0.7,2.4 -0.7,2.7 0,0.5 -6.1,0.5 -56.5,0.5 H 2.3 Z" />
	<path style="fill:#0000ff;" d="m 30.6,204.0 c -0.9,-0.7 -1.5,-2.1 -1.2,-3.0 0.2,-0.7 36.7,-71.9 44.9,-87.5 2.0,-3.9 3.2,-5.8 3.9,-6.2 0.7,-0.3 7.1,-0.4 28.4,-0.4 26.8,-0.0 27.4,0.0 28.4,0.7 0.6,0.4 4.0,6.7 9.0,16.3 11.6,22.6 12.0,23.4 11.9,23.8 -0.0,0.1 -7.4,13.0 -16.4,28.5 l -16.2,28.2 -46.0,-2.9e-4 c -35.5,-2.4e-4 -46.1,-0.1 -46.6,-0.4 z m 71.0,-10.2 c 0.8,-0.8 1.1,-1.4 1.1,-2.8 0,-2.8 -2.2,-4.4 -5.0,-3.7 -2.9,0.7 -3.8,4.2 -1.7,6.4 0.9,0.9 1.4,1.1 2.8,1.1 1.3,0 1.9,-0.2 2.8,-1.1 z m 14.3,-11.1 c 6.9,-1.8 7.5,-11.5 0.8,-14.3 -2.8,-1.1 -6.2,-0.3 -8.4,1.9 -1.3,1.4 -1.8,2.8 -1.8,5.1 0,3.3 1.9,6.0 5.2,7.0 1.8,0.5 2.2,0.5 4.1,0.0 z M 94.9,153.1 c 2.0,-1.4 2.9,-3.4 2.7,-6.0 -0.2,-3.7 -2.6,-6.0 -6.3,-6.0 -2.6,0 -4.5,0.8 -5.7,2.6 -2.4,3.7 -1.2,8.1 2.7,10.0 1.9,0.9 4.7,0.6 6.5,-0.5 z m 23.7,-20.9 c 2.8,-1.3 5.1,-4.8 5.1,-7.9 0,-1.8 -1.0,-4.3 -2.4,-5.8 -3.2,-3.4 -8.9,-3.6 -12.2,-0.5 -4.4,4.2 -3.1,11.9 2.4,14.4 1.8,0.8 5.2,0.7 7.1,-0.1 z"/>
	<path style="fill:#ff0074;" d="m 143.2,240.4 c -2.6,-0.9 -5.1,-3.2 -6.6,-5.9 -1.2,-2.2 -1.3,-2.8 -1.5,-5.9 -0.1,-2.7 0.0,-3.8 0.5,-5.3 0.8,-2.2 42.0,-73.6 43.1,-74.7 0.7,-0.7 1.4,-0.7 14.4,-0.9 7.5,-0.1 13.9,-0.0 14.3,0.0 1.5,0.7 1.1,1.7 -6.1,14.4 -28.0,48.8 -42.3,73.2 -43.9,74.9 -2.6,2.7 -5.3,3.8 -9.3,4.0 -2.1,0.0 -3.7,-0.0 -4.7,-0.4 z m 5.5,-9.6 c 2.4,-2.0 1.0,-5.9 -2.0,-5.9 -3.4,0 -4.5,4.6 -1.5,6.4 1.2,0.7 2.3,0.5 3.6,-0.5 z m 13.7,-12.9 c 3.2,-1.6 3.3,-6.4 0.1,-8.5 -1.2,-0.8 -3.9,-0.8 -5.2,0.0 -1.1,0.7 -2.2,2.7 -2.2,4.2 0,3.4 4.1,5.8 7.2,4.2 z m 15.2,-34.2 c 2.7,-2.0 3.4,-5.2 1.9,-7.9 -1.2,-2.1 -3.8,-3.4 -6.2,-3.0 -2.1,0.3 -4.5,2.5 -4.9,4.5 -0.5,2.9 0.8,5.8 3.4,6.9 1.5,0.7 4.6,0.4 5.8,-0 z"/>
</g>
</svg>
