<?xml version="1.0" encoding="UTF-8"?>
<svg xmlns="http://www.w3.org/2000/svg" xmlns:svg="http://www.w3.org/2000/svg" viewBox="0 0 824.97 335.03" version="1.1">
	<g id="layer1" transform="translate(-113.68 -512.82)">
		<g id="g4121" transform="matrix(1.0015 0 0 1.0075 194.12 44.032)">
			<g id="g4219" transform="translate(-.0035509 .011760)">
				<path id="path4030" style="stroke-linejoin:round;stroke:#828282;stroke-linecap:square;stroke-width:14.933;fill:none" d="m-63.972 790.34h110.34 0.40214 114.45 0.43307 114.42 0.43307 114.42 0.43307 114.42 0.43307 114.42 0.43307 114.86v-157.39-0.71133-136.89-17.165" />
				<path id="path3051" style="stroke:#000000;stroke-width:1.991;fill:#ffffff" d="m616.9 466.28v159.03 0.71875 156.34c0 2.77 2.23 5 5 5h106.47c2.77 0 5-2.23 5-5v-156.34-0.71875-159.03h-116.47zm-116.04 0v159.03 0.71875 156.34c0 2.77 2.23 5 5 5h106.47c2.77 0 5-2.23 5-5v-156.34-0.71875-159.03h-116.47zm-116.04 0v159.03 0.71875 156.34c0 2.77 2.23 5 5 5h106.47c2.77 0 5-2.23 5-5v-156.34-0.71875-159.03h-116.47zm-116.04 0v159.03 0.71875 156.34c0 2.77 2.23 5 5 5h106.47c2.77 0 5-2.23 5-5v-156.34-0.71875-159.03h-116.47zm-116.04 0v159.03 0.71875 156.34c0 2.77 2.23 5 5 5h106.47c2.77 0 5-2.23 5-5v-156.34-0.71875-159.03h-116.47zm-116.04 0v159.03 0.71875 156.34c0 2.77 2.23 5 5 5h106.47c2.77 0 5-2.23 5-5v-156.34-0.71875-159.03h-116.47zm-116.04 0v159.03 0.71875 156.34c0 2.77 2.23 5 5 5h106.47c2.77 0 5-2.23 5-5v-156.34-0.71875-159.03h-116.47z" />
				<g id="g4075" transform="translate(-199.1 409.31)">
					<g id="g3906" transform="matrix(-1 0 0 1 400.61 -719.61)">
						<path id="rect3790" style="fill-rule:evenodd;fill:#000000" d="m140.14 777.43v105.81 1.1138 102.31c0 4.4939 2.7031 8.1148 6.0625 8.1148h39.906c3.3594 0 6.0625-3.6209 6.0625-8.1148v-102.31-1.1138-105.81h-52.031z" />
						<path id="path3808" style="stroke-linejoin:round;stroke:#414141;stroke-linecap:round;stroke-width:8.9595;fill:#414141" d="m150.63 790.7v187.2-187.2zm0 188.96h31.969-31.969z" />
						<path id="path3833" style="stroke-linejoin:round;stroke:#dfdfdf;stroke-linecap:round;stroke-width:4.9775;fill:#dfdfdf" d="m150.63 790.7v187.2-187.2zm0 188.96h31.969-31.969z" />
					</g>
					<g id="g3901" transform="matrix(-1 0 0 1 632.26 -719.61)">
						<path id="path3843" style="fill-rule:evenodd;fill:#000000" d="m255.97 777.43v105.81 1.1138 102.31c0 4.4939 2.7031 8.1148 6.0625 8.1148h39.906c3.3594 0 6.0625-3.6209 6.0625-8.1148v-102.31-1.1138-105.81h-52.031z" />
						<path id="path3847" style="stroke-linejoin:round;stroke:#414141;stroke-linecap:round;stroke-width:8.9595;fill:#414141" d="m266.46 790.7v187.2-187.2zm0 188.96h31.969-31.969z" />
						<path id="path3849" style="stroke-linejoin:round;stroke:#dfdfdf;stroke-linecap:round;stroke-width:4.9775;fill:#dfdfdf" d="m266.46 790.7v187.2-187.2zm0 188.96h31.969-31.969z" />
					</g>
					<g id="g3896" transform="matrix(-1 0 0 1 1097.9 -719.61)">
						<path id="path3853" style="fill-rule:evenodd;fill:#000000" d="m488.77 776v105.81 1.1138 102.31c0 4.4939 2.7031 8.1148 6.0625 8.1148h39.906c3.3594 0 6.0625-3.6209 6.0625-8.1148v-102.31-1.1138-105.81h-52.031z" />
						<path id="path3857" style="stroke-linejoin:round;stroke:#414141;stroke-linecap:round;stroke-width:8.9595;fill:#414141" d="m499.25 789.26v187.2-187.2zm0 188.96h31.969-31.969z" />
						<path id="path3859" style="stroke-linejoin:round;stroke:#dfdfdf;stroke-linecap:round;stroke-width:4.9775;fill:#dfdfdf" d="m499.26 789.26v187.2-187.2zm0 188.96h31.969-31.969z" />
					</g>
					<g id="g3891" transform="matrix(-1 0 0 1 1331.7 -719.61)">
						<path id="path3863" style="fill-rule:evenodd;fill:#000000" d="m605.68 776v105.81 1.1138 102.31c0 4.4939 2.7031 8.1148 6.0625 8.1148h39.906c3.3594 0 6.0625-3.6209 6.0625-8.1148v-102.31-1.1138-105.81h-52.031z" />
						<path id="path3867" style="stroke-linejoin:round;stroke:#414141;stroke-linecap:round;stroke-width:8.9595;fill:#414141" d="m616.17 789.26v187.2-187.2zm0 188.96h31.969-31.969z" />
						<path id="path3869" style="stroke-linejoin:round;stroke:#dfdfdf;stroke-linecap:round;stroke-width:4.9775;fill:#dfdfdf" d="m616.17 789.26v187.2-187.2zm0 188.96h31.969-31.969z" />
					</g>
					<g id="g3886" transform="matrix(-1 0 0 1 1563.7 -719.61)">
						<path id="path3873" style="fill-rule:evenodd;fill:#000000" d="m721.68 776v105.81 1.1138 102.31c0 4.4939 2.7031 8.1148 6.0625 8.1148h39.906c3.3594 0 6.0625-3.6209 6.0625-8.1148v-102.31-1.1138-105.81h-52.031z" />
						<path id="path3877" style="stroke-linejoin:round;stroke:#414141;stroke-linecap:round;stroke-width:8.9595;fill:#414141" d="m732.17 789.26v187.2-187.2zm0 188.96h31.969-31.969z" />
						<path id="path3879" style="stroke-linejoin:round;stroke:#dfdfdf;stroke-linecap:round;stroke-width:4.9775;fill:#dfdfdf" d="m732.17 789.26v187.2-187.2zm0 188.96h31.969-31.969z" />
					</g>
				</g>
			</g>
		</g>
	</g>
</svg>